<svg xmlns="http://www.w3.org/2000/svg" viewBox="0 0 512 512" width="512px" height="512px"><path fill="#FFFFFF" d="M349.13 136.86c-40.32 0-57.36 19.24-85.44 19.24-28.79 0-50.75-19.1-85.69-19.1-34.2 0-70.67 20.88-93.83 56.45-32.52 50.16-27 144.63 25.67 225.11 18.84 28.81 44 61.12 77 61.47h.6c28.68 0 37.2-18.78 76.67-19h.6c38.88 0 46.68 18.89 75.24 18.89h.6c33.02 0 53.45-29.2 72.05-57.5 17.51-26.6 28.62-55.74 28.62-56l-.1-.13c-2.42-1.13-46.75-18.52-46.75-71.12 0-43.2 33.19-61.94 34.04-62.43.08-.05-.18-.32-.23-.38-20-29.14-50.5-34.4-62.88-34.5zm-81.11-6.19c1.68-20.61 10.9-39.75 25.13-53.53 14.81-14.33 34.52-22.1 54.49-22.1 1.25 0 2.5.02 3.75.07l.12.02c1.19 21.04-7.1 40.94-22.25 54.91-14.81 14.33-35.32 21.65-54.89 21.65-.62 0-1.25 0-1.87-.03-2.14-0.12-4.14-0.49-4.48-1z"/></svg>
